<svg xmlns="http://www.w3.org/2000/svg" aria-labelledby="title desc" viewBox="0 0 512 512">
  <title id="title">Sequencing Reads</title>
  <desc id="desc">
    Short sequencing reads aligned to a reference with variant markers.
  </desc>
<!--SciSVG — Saveena Solanki, CC BY 4.0, https://github.com/SaveenaSolanki/SciSVG-->
  <line x1="60" x2="452" y1="276" y2="276" stroke="#8a94a6" stroke-linecap="round" stroke-width="5"/>
  <rect width="58" height="12" x="80" y="250" fill="#3157a4" rx="6"/>
  <rect width="62" height="12" x="128" y="232" fill="#3157a4" rx="6"/>
  <rect width="54" height="12" x="176" y="252" fill="#3157a4" rx="6"/>
  <rect width="60" height="12" x="222" y="236" fill="#3157a4" rx="6"/>
  <rect width="56" height="12" x="270" y="254" fill="#3157a4" rx="6"/>
  <rect width="58" height="12" x="318" y="238" fill="#3157a4" rx="6"/>
  <rect width="60" height="12" x="368" y="252" fill="#3157a4" rx="6"/>
  <rect width="56" height="12" x="96" y="300" fill="#2a7b70" rx="6"/>
  <rect width="58" height="12" x="146" y="318" fill="#2a7b70" rx="6"/>
  <rect width="54" height="12" x="196" y="302" fill="#2a7b70" rx="6"/>
  <rect width="58" height="12" x="244" y="320" fill="#2a7b70" rx="6"/>
  <rect width="56" height="12" x="294" y="304" fill="#2a7b70" rx="6"/>
  <rect width="58" height="12" x="342" y="318" fill="#2a7b70" rx="6"/>
  <rect width="54" height="12" x="390" y="302" fill="#2a7b70" rx="6"/>
  <line x1="205" x2="205" y1="252" y2="266" stroke="#b26b36" stroke-linecap="round" stroke-width="4"/>
  <line x1="352" x2="352" y1="238" y2="252" stroke="#b26b36" stroke-linecap="round" stroke-width="4"/>
  <line x1="318" x2="318" y1="300" y2="314" stroke="#b26b36" stroke-linecap="round" stroke-width="4"/>
</svg>
