<svg xmlns="http://www.w3.org/2000/svg" viewBox="0 0 512 512" role="img" aria-labelledby="title desc">
  <title id="title">Neuron</title>
  <desc id="desc">Neuron with dendrites, soma, myelinated axon and synaptic terminals.</desc>
  <!-- SciSVG — Saveena Solanki, CC BY 4.0, https://github.com/SaveenaSolanki/SciSVG -->
  <g id="dendrites" fill="none" stroke="#3157a4" stroke-width="5" stroke-linecap="round">
    <path d="M 112 214 C 70 190 55 150 40 120"/>
    <path d="M 108 232 C 62 234 30 212 18 178"/>
    <path d="M 108 252 C 60 268 34 300 26 342"/>
    <path d="M 118 300 C 88 336 70 360 66 394"/>
    <path d="M 130 324 C 112 360 120 396 132 424"/>
    <path d="M 152 326 C 152 372 142 402 134 430"/>
  </g>
  <g id="dendrite-tips" fill="#3157a4">
    <circle cx="40" cy="120" r="6"/>
    <circle cx="18" cy="178" r="6"/>
    <circle cx="26" cy="342" r="6"/>
    <circle cx="66" cy="394" r="6"/>
    <circle cx="132" cy="424" r="6"/>
    <circle cx="134" cy="430" r="6"/>
  </g>
  <g id="soma">
    <circle cx="180" cy="256" r="72" fill="#e7edf8" stroke="#3157a4" stroke-width="5"/>
    <circle cx="178" cy="252" r="26" fill="#b9cbe8" stroke="#3157a4" stroke-width="4"/>
    <circle cx="178" cy="252" r="9" fill="#b26b36"/>
  </g>
  <g id="axon" fill="none" stroke="#3f4c61" stroke-width="7" stroke-linecap="round">
    <path d="M 246 240 C 280 232 300 250 340 256 L 470 256"/>
  </g>
  <g id="myelin-sheath">
    <rect x="348" y="247" width="36" height="17" rx="8" fill="#f3e0cd" stroke="#b26b36" stroke-width="3"/>
    <rect x="392" y="247" width="36" height="17" rx="8" fill="#f3e0cd" stroke="#b26b36" stroke-width="3"/>
    <rect x="434" y="247" width="36" height="17" rx="8" fill="#f3e0cd" stroke="#b26b36" stroke-width="3"/>
  </g>
  <g id="axon-terminals" fill="none" stroke="#3f4c61" stroke-width="5" stroke-linecap="round">
    <path d="M 462 256 C 476 248 484 242 496 236"/>
    <path d="M 462 256 L 496 256"/>
    <path d="M 462 256 C 476 264 484 270 496 276"/>
  </g>
  <g id="boutons" fill="#b26b36">
    <circle cx="496" cy="236" r="8"/>
    <circle cx="496" cy="256" r="8"/>
    <circle cx="496" cy="276" r="8"/>
  </g>
</svg>
