<svg xmlns="http://www.w3.org/2000/svg" aria-labelledby="title desc" viewBox="0 0 512 512">
  <title id="title">Ribosome</title>
  <desc id="desc">
    Ribosome with mRNA, transfer RNAs and a nascent polypeptide chain.
  </desc>
<!--SciSVG — Saveena Solanki, CC BY 4.0, https://github.com/SaveenaSolanki/SciSVG-->
  <g id="mRNA" stroke="#3f4c61" stroke-linecap="round" stroke-width="5">
    <line x1="80" x2="432" y1="256" y2="256"/>
  </g>
  <g id="codons">
    <rect width="18" height="22" x="140" y="262" fill="#3157a4" rx="3"/>
    <rect width="18" height="22" x="190" y="262" fill="#2a7b70" rx="3"/>
    <rect width="18" height="22" x="240" y="262" fill="#b26b36" rx="3"/>
    <rect width="18" height="22" x="290" y="262" fill="#3157a4" rx="3"/>
  </g>
  <g id="small-subunit">
    <path fill="#dbe6f8" stroke="#3157a4" stroke-linejoin="round" stroke-width="4" d="M118 256c0 74 266 74 266 0Z"/>
  </g>
  <g id="large-subunit">
    <path fill="#e5f1ee" stroke="#2a7b70" stroke-linejoin="round" stroke-width="4" d="M132 254c0-66 240-66 240 0Z"/>
  </g>
  <g id="tRNA">
    <line x1="168" x2="168" y1="190" y2="226" stroke="#b26b36" stroke-linecap="round" stroke-width="4"/>
    <circle cx="168" cy="236" r="7" fill="#b26b36"/>
    <line x1="246" x2="246" y1="190" y2="226" stroke="#b26b36" stroke-linecap="round" stroke-width="4"/>
    <circle cx="246" cy="236" r="7" fill="#b26b36"/>
  </g>
  <g id="nascent-chain" fill="#b26b36" stroke="#b26b36" stroke-width="4">
    <line x1="336" x2="352" y1="178" y2="158" stroke-linecap="round"/>
    <line x1="352" x2="368" y1="158" y2="138" stroke-linecap="round"/>
    <circle cx="336" cy="178" r="6"/>
    <circle cx="352" cy="158" r="6"/>
    <circle cx="368" cy="138" r="6"/>
  </g>
</svg>
